<svg width="165" height="67" viewBox="0 0 165 67" fill="none" xmlns="http://www.w3.org/2000/svg">
<path d="M28.9399 66.4553H33.6627V64.5645L29.3101 64.5057C27.8527 64.5057 27.321 62.8537 27.2304 61.3896C27.1279 59.7962 27.5849 57.8153 29.192 57.8153H33.6194V55.7914H29.3574C28.542 55.7914 28.0339 55.8932 27.2934 56.1907C23.6538 57.6666 23.7719 65.093 27.5297 66.2165C28.0497 66.377 28.3924 66.4514 28.9399 66.4514" fill="#E3243C"/>
<path d="M0 66.4477L3.82475 57.1343C3.82475 57.1343 4.38803 55.7994 5.69183 55.7994C6.99563 55.7994 7.54315 57.1148 7.54315 57.1148L11.5964 66.4516H8.92968L7.96856 64.0401H4.65982L5.38065 62.1649L7.2044 62.157L5.7194 58.4615L4.33288 62.1649L4.12805 62.6894L3.75779 63.6133L3.5569 64.181L2.63124 66.4555H0" fill="#E3243C"/>
<path d="M12.8845 55.7681H20.5379C20.5379 55.7681 23.2755 55.8621 23.4843 58.9665C23.4843 58.9665 23.6773 61.5307 20.8176 62.1218L23.7994 66.4516H20.7979L18.0445 62.3293H16.4965L17.1622 60.6225H18.789C18.789 60.6225 20.79 60.5716 20.7979 59.0526C20.8058 57.5376 18.8836 57.5728 18.8836 57.5728H15.4172V66.4555H12.8805V55.7681" fill="#E3243C"/>
<path d="M34.9843 66.4202L38.809 57.1069C38.809 57.1069 39.3723 55.772 40.6761 55.772C41.9799 55.772 42.5274 57.0873 42.5274 57.0873L46.5806 66.4241H43.9139L42.9528 64.0126H39.6441L40.3649 62.1374L42.1887 62.1296L40.7037 58.434L39.3171 62.1374L39.1123 62.662L38.746 63.5859L38.5451 64.1536L37.6194 66.4281H34.9882" fill="#E3243C"/>
<path d="M158.942 55.9287H156.192V62.6739C156.192 63.4138 156.267 63.8562 156.563 64.506C157.378 66.2168 159.19 66.5731 161.151 66.5731H165V64.8466H161.585C160.695 64.8466 159.966 64.7448 159.414 64.0637C159.06 63.6056 158.942 63.2063 158.942 62.6034V55.9287Z" fill="#7C3520"/>
<path d="M134.805 57.6549H138.712V66.4554H141.194V57.6549H145.172V55.8385H134.805V57.6549Z" fill="#7C3520"/>
<path d="M122.231 66.424H124.772L124.729 58.6609L129.912 66.471H133.316V55.7796H130.716V63.7698L125.65 55.7796H122.216L122.231 66.424Z" fill="#7C3520"/>
<path d="M115.57 66.3692H120.77V64.5214H116.09C115.362 64.5214 114.873 64.2121 114.412 63.6797C113.967 63.1943 113.79 62.7362 113.79 62.055H120.774V60.1799H113.762C113.731 59.4282 113.94 58.8958 114.448 58.3634C114.968 57.831 115.503 57.6391 116.26 57.6391H120.715V55.764H115.885C114.845 55.764 114.192 55.8814 113.258 56.3551C109.977 58.0659 109.93 64.2082 113.258 65.8211C114.089 66.2204 114.656 66.3692 115.574 66.3692" fill="#7C3520"/>
<path d="M98.3618 66.424H100.902L100.855 58.6609L106.043 66.471H109.442V55.7796H106.842V63.7698L101.777 55.7796H98.3461L98.3618 66.424Z" fill="#7C3520"/>
<path d="M96.852 55.7092H94.0002V66.3535H96.852V55.7092Z" fill="#7C3520"/>
<path d="M82.3136 57.6549H86.2211V66.4554H88.7027V57.6549H92.685V55.8385H82.3136V57.6549Z" fill="#7C3520"/>
<path d="M69.7236 66.424H72.2642L72.2209 58.6609L77.4046 66.471H80.8079V55.7796H78.2081V63.7698L73.1426 55.7796H69.7117L69.7236 66.424Z" fill="#7C3520"/>
<path d="M68.4321 61.112C68.3297 57.6865 67.2268 55.5294 62.5946 55.5294C58.435 55.5294 56.6822 57.8314 56.6822 60.9906C56.6822 65.1403 58.8525 66.7336 62.6379 66.718C65.7418 66.718 68.5661 65.567 68.4321 61.108M62.7285 64.8154C59.7112 64.8467 59.3843 62.8971 59.3725 61.0337C59.3567 59.3072 60.1603 57.4751 62.4922 57.4164C64.8083 57.3733 65.73 59.0841 65.73 61.0337C65.73 62.9832 65.2534 64.7997 62.7285 64.8154Z" fill="#7C3520"/>
<path d="M50.9472 66.4553H55.67V64.5645L51.3175 64.5057C49.86 64.5057 49.3283 62.8537 49.2377 61.3896C49.1353 59.7962 49.5922 57.8153 51.1993 57.8153H55.6267V55.7914H51.3647C50.5494 55.7914 50.0412 55.8932 49.3007 56.1907C45.6611 57.6666 45.7793 65.093 49.537 66.2165C50.057 66.377 50.3997 66.4514 50.9472 66.4514" fill="#7C3520"/>
<path d="M144.114 66.4202L147.938 57.1069C147.938 57.1069 148.502 55.772 149.805 55.772C151.109 55.772 151.657 57.0873 151.657 57.0873L155.71 66.4241H153.043L152.082 64.0126H148.773L149.494 62.1374L151.318 62.1296L149.833 58.434L148.447 62.1374L148.242 62.662L147.871 63.5859L147.671 64.1536L146.745 66.4281H144.114" fill="#7C3520"/>
<path d="M57.454 23.5491L70.1099 10.9709C71.6619 9.43233 73.2729 10.9709 73.2729 10.9709L76.7826 14.4589L83.0495 8.23049C80.8752 6.06952 78.949 4.15518 77.9564 3.16865C71.6304 -3.11853 65.3595 3.10992 65.3595 3.10992L49.5406 18.8318C43.1515 25.1816 49.4775 31.4688 49.4775 31.4688L64.5087 46.4077C64.5087 46.4077 65.3004 47.1945 66.2458 46.2511C66.5964 45.9026 66.9036 45.5973 66.9036 44.0235C66.9036 43.0018 66.9036 36.0687 66.9036 36.0687L57.4501 26.6888C55.8351 25.0837 57.4501 23.5452 57.4501 23.5452" fill="#E3243C"/>
<path d="M91.4951 16.6199L85.2282 22.8484L85.9332 23.5491C87.4852 25.0915 85.9332 26.6927 85.9332 26.6927L76.3654 36.2174C76.3654 36.2174 76.3773 42.6338 76.3654 43.6634C76.3458 45.288 76.6924 45.8126 77.0745 46.1923C78.0238 47.1358 78.8549 46.3098 78.8549 46.3098C78.8549 46.3098 90.7427 34.4949 93.8467 31.41C100.114 25.1816 93.7836 18.8905 93.7836 18.8905C93.7836 18.8905 92.8816 17.994 91.499 16.6199" fill="#E3243C"/>
<path d="M117.845 30.5334C117.494 30.185 117.187 29.8796 115.604 29.8796C114.576 29.8796 107.6 29.8796 107.6 29.8796L98.1619 39.2752C96.547 40.8802 94.9989 39.2752 94.9989 39.2752L91.5484 35.8458L85.2185 42.133L90.2525 47.1361C96.6415 53.4859 102.971 47.1948 102.971 47.1948L117.999 32.2598C117.999 32.2598 118.79 31.473 117.845 30.5334Z" fill="#7C3520"/>
<path d="M83.053 27.3973L82.3479 26.6965C80.7999 25.158 82.3479 23.5529 82.3479 23.5529L95.0039 10.9746C96.5519 9.43221 98.1669 10.9746 98.1669 10.9746L107.75 20.4837C107.75 20.4837 114.202 20.472 115.242 20.4837C116.877 20.5033 117.409 20.1549 117.787 19.779C118.736 18.8356 117.905 18.0096 117.905 18.0096C117.905 18.0096 106.021 6.19467 102.917 3.11372C96.6503 -3.11474 90.3204 3.17244 90.3204 3.17244C90.3204 3.17244 87.4725 6.00284 84.1441 9.31085C82.0485 11.3935 79.7679 13.6602 77.8772 15.5393L74.5014 18.8943C68.1754 25.1854 74.4424 31.4138 74.4424 31.4138L76.7348 33.6923L83.0569 27.3973H83.053Z" fill="#7C3520"/>
</svg>
